<?xml version="1.0" encoding="utf-8"?>
<!-- Generator: Adobe Illustrator 16.0.0, SVG Export Plug-In . SVG Version: 6.00 Build 0)  -->
<!DOCTYPE svg PUBLIC "-//W3C//DTD SVG 1.1//EN" "http://www.w3.org/Graphics/SVG/1.1/DTD/svg11.dtd">
<svg version="1.1" id="Capa_1" xmlns="http://www.w3.org/2000/svg" xmlns:xlink="http://www.w3.org/1999/xlink" x="0px" y="0px"
	 width="475.75px" height="475.75px" viewBox="-19.25 -144 475.75 475.75" enable-background="new -19.25 -144 475.75 475.75"
	 xml:space="preserve">
<g id="Capa_1">
	<g>
		<g id="down-chevron_7_">
			<g id="Group_11_7_" transform="translate(447 130)">
				<path id="Union_6_7_" d="M-228.354,105.086c-5.868,0.172-11.548-2.082-15.701-6.229L-440.173-97.24
					c-8.336-8.326-8.343-21.834-0.017-30.17c0.006-0.006,0.011-0.011,0.017-0.017c8.331-8.328,21.835-8.328,30.165,0
					l181.633,181.632l181.632-181.632c8.331-8.328,21.835-8.328,30.165,0c8.336,8.327,8.344,21.834,0.018,30.17
					c-0.006,0.006-0.012,0.012-0.018,0.017L-212.695,98.856c-4,4.001-9.425,6.249-15.082,6.251L-228.354,105.086z"/>
			</g>
		</g>
	</g>
	<g>
		<g id="down-chevron_6_">
			<g id="Group_11_6_" transform="translate(447 130)">
				<path id="Union_6_6_" d="M-228.354,105.086c-5.868,0.172-11.548-2.082-15.701-6.229L-440.173-97.24
					c-8.336-8.326-8.343-21.834-0.017-30.17c0.006-0.006,0.011-0.011,0.017-0.017c8.331-8.328,21.835-8.328,30.165,0
					l181.633,181.632l181.632-181.632c8.331-8.328,21.835-8.328,30.165,0c8.336,8.327,8.344,21.834,0.018,30.17
					c-0.006,0.006-0.012,0.012-0.018,0.017L-212.695,98.856c-4,4.001-9.425,6.249-15.082,6.251L-228.354,105.086z"/>
			</g>
		</g>
	</g>
</g>
</svg>
