<?xml version="1.0" encoding="utf-8"?>
<!-- Generator: Adobe Illustrator 16.0.0, SVG Export Plug-In . SVG Version: 6.00 Build 0)  -->
<!DOCTYPE svg PUBLIC "-//W3C//DTD SVG 1.1//EN" "http://www.w3.org/Graphics/SVG/1.1/DTD/svg11.dtd">
<svg version="1.1" id="Capa_1" xmlns="http://www.w3.org/2000/svg" xmlns:xlink="http://www.w3.org/1999/xlink" x="0px" y="0px"
	 width="512px" height="512px" viewBox="0 0 512 512" enable-background="new 0 0 512 512" xml:space="preserve">
<g id="menu">
	<g id="Group_1" transform="translate(187 130)">
		<path id="Rectangle_1" fill="#FFFFFF" d="M-123-23.333h384c11.782,0,21.333,9.551,21.333,21.333l0,0
			c0,11.782-9.551,21.334-21.333,21.334h-384c-11.782,0-21.333-9.552-21.333-21.334l0,0C-144.333-13.782-134.782-23.333-123-23.333z
			"/>
		<path id="Rectangle_2" fill="#FFFFFF" d="M-123,104.667h384c11.782,0,21.333,9.551,21.333,21.333l0,0
			c0,11.782-9.551,21.333-21.333,21.333h-384c-11.782,0-21.333-9.551-21.333-21.333l0,0
			C-144.333,114.218-134.782,104.667-123,104.667z"/>
		<path id="Rectangle_3" fill="#FFFFFF" d="M-123,232.667h384c11.782,0,21.333,9.551,21.333,21.333l0,0
			c0,11.782-9.551,21.333-21.333,21.333h-384c-11.782,0-21.333-9.551-21.333-21.333l0,0
			C-144.333,242.218-134.782,232.667-123,232.667z"/>
	</g>
</g>
</svg>
